<mxfile host="app.diagrams.net" modified="2023-05-07T15:59:19.380Z" agent="Mozilla/5.0 (Windows NT 10.0; Win64; x64) AppleWebKit/537.36 (KHTML, like Gecko) Chrome/112.0.0.0 Safari/537.36 Edg/112.0.1722.68" etag="PauKEVY8bBheQpAiONA2" version="21.2.9" type="github">
  <diagram name="第 1 页" id="jfRmg2dCQAbcF8cwOfcg">
    <mxGraphModel dx="1203" dy="663" grid="0" gridSize="10" guides="1" tooltips="1" connect="1" arrows="1" fold="1" page="1" pageScale="1" pageWidth="827" pageHeight="1169" math="0" shadow="0">
      <root>
        <mxCell id="0" />
        <mxCell id="1" parent="0" />
        <mxCell id="OcgWMPfODBI8_MuJOEAS-41" value="" style="shape=table;startSize=0;container=1;collapsible=0;childLayout=tableLayout;fillColor=#f8cecc;strokeColor=#b85450;rounded=0;sketch=1;curveFitting=1;jiggle=2;shadow=0;fontSize=21;fontColor=#66CC00;" vertex="1" parent="1">
          <mxGeometry x="240" y="150" width="300" height="190" as="geometry" />
        </mxCell>
        <mxCell id="OcgWMPfODBI8_MuJOEAS-42" value="" style="shape=tableRow;horizontal=0;startSize=0;swimlaneHead=0;swimlaneBody=0;strokeColor=inherit;top=0;left=0;bottom=0;right=0;collapsible=0;dropTarget=0;fillColor=none;points=[[0,0.5],[1,0.5]];portConstraint=eastwest;" vertex="1" parent="OcgWMPfODBI8_MuJOEAS-41">
          <mxGeometry width="300" height="95" as="geometry" />
        </mxCell>
        <mxCell id="OcgWMPfODBI8_MuJOEAS-43" value="&lt;font color=&quot;#4d9900&quot; style=&quot;font-size: 21px;&quot;&gt;Authentication&lt;/font&gt;" style="shape=partialRectangle;html=1;whiteSpace=wrap;connectable=0;strokeColor=inherit;overflow=hidden;fillColor=none;top=0;left=0;bottom=0;right=0;pointerEvents=1;" vertex="1" parent="OcgWMPfODBI8_MuJOEAS-42">
          <mxGeometry width="150" height="95" as="geometry">
            <mxRectangle width="150" height="95" as="alternateBounds" />
          </mxGeometry>
        </mxCell>
        <mxCell id="OcgWMPfODBI8_MuJOEAS-44" value="&lt;font color=&quot;#4d9900&quot; style=&quot;font-size: 21px;&quot;&gt;Authorization&lt;/font&gt;" style="shape=partialRectangle;html=1;whiteSpace=wrap;connectable=0;strokeColor=inherit;overflow=hidden;fillColor=none;top=0;left=0;bottom=0;right=0;pointerEvents=1;" vertex="1" parent="OcgWMPfODBI8_MuJOEAS-42">
          <mxGeometry x="150" width="150" height="95" as="geometry">
            <mxRectangle width="150" height="95" as="alternateBounds" />
          </mxGeometry>
        </mxCell>
        <mxCell id="OcgWMPfODBI8_MuJOEAS-45" value="" style="shape=tableRow;horizontal=0;startSize=0;swimlaneHead=0;swimlaneBody=0;strokeColor=inherit;top=0;left=0;bottom=0;right=0;collapsible=0;dropTarget=0;fillColor=none;points=[[0,0.5],[1,0.5]];portConstraint=eastwest;" vertex="1" parent="OcgWMPfODBI8_MuJOEAS-41">
          <mxGeometry y="95" width="300" height="95" as="geometry" />
        </mxCell>
        <mxCell id="OcgWMPfODBI8_MuJOEAS-46" value="&lt;font style=&quot;font-size: 21px;&quot; color=&quot;#4d9900&quot;&gt;Session Management&lt;/font&gt;" style="shape=partialRectangle;html=1;whiteSpace=wrap;connectable=0;strokeColor=inherit;overflow=hidden;fillColor=none;top=0;left=0;bottom=0;right=0;pointerEvents=1;" vertex="1" parent="OcgWMPfODBI8_MuJOEAS-45">
          <mxGeometry width="150" height="95" as="geometry">
            <mxRectangle width="150" height="95" as="alternateBounds" />
          </mxGeometry>
        </mxCell>
        <mxCell id="OcgWMPfODBI8_MuJOEAS-47" value="&lt;font style=&quot;font-size: 21px;&quot; color=&quot;#4d9900&quot;&gt;Cryptography&lt;/font&gt;" style="shape=partialRectangle;html=1;whiteSpace=wrap;connectable=0;strokeColor=inherit;overflow=hidden;fillColor=none;top=0;left=0;bottom=0;right=0;pointerEvents=1;" vertex="1" parent="OcgWMPfODBI8_MuJOEAS-45">
          <mxGeometry x="150" width="150" height="95" as="geometry">
            <mxRectangle width="150" height="95" as="alternateBounds" />
          </mxGeometry>
        </mxCell>
        <mxCell id="OcgWMPfODBI8_MuJOEAS-48" value="&lt;font color=&quot;#999900&quot; style=&quot;font-size: 18px;&quot;&gt;Web Support&lt;/font&gt;" style="rounded=1;whiteSpace=wrap;html=1;fillColor=#dae8fc;strokeColor=#6c8ebf;" vertex="1" parent="1">
          <mxGeometry x="250" y="350" width="140" height="50" as="geometry" />
        </mxCell>
        <mxCell id="OcgWMPfODBI8_MuJOEAS-49" value="&lt;font color=&quot;#999900&quot; style=&quot;font-size: 18px;&quot;&gt;Caching&lt;br&gt;&lt;/font&gt;" style="rounded=1;whiteSpace=wrap;html=1;fillColor=#dae8fc;strokeColor=#6c8ebf;" vertex="1" parent="1">
          <mxGeometry x="400" y="350" width="140" height="50" as="geometry" />
        </mxCell>
        <mxCell id="OcgWMPfODBI8_MuJOEAS-50" value="&lt;font color=&quot;#999900&quot; style=&quot;font-size: 11px;&quot;&gt;Concurrency&lt;/font&gt;" style="rounded=1;whiteSpace=wrap;html=1;fillColor=#dae8fc;strokeColor=#6c8ebf;" vertex="1" parent="1">
          <mxGeometry x="250" y="410" width="70" height="40" as="geometry" />
        </mxCell>
        <mxCell id="OcgWMPfODBI8_MuJOEAS-51" value="&lt;font color=&quot;#999900&quot; style=&quot;font-size: 13px;&quot;&gt;Testing&lt;/font&gt;" style="rounded=1;whiteSpace=wrap;html=1;fillColor=#dae8fc;strokeColor=#6c8ebf;" vertex="1" parent="1">
          <mxGeometry x="320" y="410" width="70" height="40" as="geometry" />
        </mxCell>
        <mxCell id="OcgWMPfODBI8_MuJOEAS-52" value="&lt;font color=&quot;#999900&quot; style=&quot;font-size: 13px;&quot;&gt;&quot;Run As&quot;&lt;/font&gt;" style="rounded=1;whiteSpace=wrap;html=1;fillColor=#dae8fc;strokeColor=#6c8ebf;" vertex="1" parent="1">
          <mxGeometry x="400" y="410" width="70" height="40" as="geometry" />
        </mxCell>
        <mxCell id="OcgWMPfODBI8_MuJOEAS-53" value="&lt;font color=&quot;#999900&quot; style=&quot;font-size: 11px;&quot;&gt;Remember Me&lt;/font&gt;" style="rounded=1;whiteSpace=wrap;html=1;fillColor=#dae8fc;strokeColor=#6c8ebf;" vertex="1" parent="1">
          <mxGeometry x="470" y="410" width="70" height="40" as="geometry" />
        </mxCell>
        <mxCell id="OcgWMPfODBI8_MuJOEAS-54" value="" style="shape=curlyBracket;whiteSpace=wrap;html=1;rounded=1;flipH=1;labelPosition=right;verticalLabelPosition=middle;align=left;verticalAlign=middle;sketch=1;curveFitting=1;jiggle=2;" vertex="1" parent="1">
          <mxGeometry x="550" y="150" width="50" height="190" as="geometry" />
        </mxCell>
        <mxCell id="OcgWMPfODBI8_MuJOEAS-55" value="" style="shape=curlyBracket;whiteSpace=wrap;html=1;rounded=1;flipH=1;labelPosition=right;verticalLabelPosition=middle;align=left;verticalAlign=middle;sketch=1;curveFitting=1;jiggle=2;" vertex="1" parent="1">
          <mxGeometry x="550" y="350" width="50" height="90" as="geometry" />
        </mxCell>
        <mxCell id="OcgWMPfODBI8_MuJOEAS-56" value="&lt;font style=&quot;font-size: 19px;&quot;&gt;Primary Concerns&lt;/font&gt;" style="text;html=1;strokeColor=none;fillColor=none;align=center;verticalAlign=middle;whiteSpace=wrap;rounded=0;" vertex="1" parent="1">
          <mxGeometry x="590" y="225" width="180" height="40" as="geometry" />
        </mxCell>
        <mxCell id="OcgWMPfODBI8_MuJOEAS-57" value="&lt;font style=&quot;font-size: 19px;&quot;&gt;Supporting Features&lt;/font&gt;" style="text;html=1;strokeColor=none;fillColor=none;align=center;verticalAlign=middle;whiteSpace=wrap;rounded=0;" vertex="1" parent="1">
          <mxGeometry x="600" y="375" width="180" height="40" as="geometry" />
        </mxCell>
      </root>
    </mxGraphModel>
  </diagram>
</mxfile>
